<svg width="61" height="15" viewBox="0 0 61 15" fill="none" xmlns="http://www.w3.org/2000/svg">
<path d="M9 2.94C8.90667 3.09333 8.81 3.20667 8.71 3.28C8.61667 3.34667 8.49333 3.38 8.34 3.38C8.19333 3.38 8.03333 3.33 7.86 3.23C7.69333 3.12333 7.49667 3.01 7.27 2.89C7.04333 2.77 6.78333 2.66 6.49 2.56C6.19667 2.45333 5.85333 2.4 5.46 2.4C4.76667 2.4 4.24667 2.55667 3.9 2.87C3.55333 3.17667 3.38 3.58 3.38 4.08C3.38 4.4 3.47333 4.66667 3.66 4.88C3.85333 5.08667 4.10333 5.26667 4.41 5.42C4.72333 5.57333 5.07667 5.71 5.47 5.83C5.86333 5.95 6.26667 6.08333 6.68 6.23C7.09333 6.37 7.49667 6.53667 7.89 6.73C8.28333 6.92333 8.63333 7.16667 8.94 7.46C9.25333 7.75333 9.50333 8.11333 9.69 8.54C9.88333 8.96 9.98 9.47333 9.98 10.08C9.98 10.74 9.86333 11.36 9.63 11.94C9.40333 12.5133 9.07333 13.0167 8.64 13.45C8.20667 13.8767 7.67 14.2133 7.03 14.46C6.39667 14.7067 5.67667 14.83 4.87 14.83C4.41 14.83 3.95 14.7833 3.49 14.69C3.03667 14.5967 2.59667 14.4667 2.17 14.3C1.75 14.1333 1.35333 13.9333 0.98 13.7C0.606667 13.4667 0.28 13.2067 0 12.92L0.88 11.5C0.953333 11.3933 1.05 11.3067 1.17 11.24C1.29 11.1667 1.41667 11.13 1.55 11.13C1.73 11.13 1.92 11.1967 2.12 11.33C2.32 11.4633 2.55 11.61 2.81 11.77C3.07 11.93 3.37 12.0767 3.71 12.21C4.05667 12.3433 4.47 12.41 4.95 12.41C5.65 12.41 6.19 12.25 6.57 11.93C6.95667 11.61 7.15 11.1333 7.15 10.5C7.15 10.1333 7.05333 9.83667 6.86 9.61C6.67333 9.38333 6.42667 9.19333 6.12 9.04C5.81333 8.88667 5.46333 8.75667 5.07 8.65C4.67667 8.53667 4.27333 8.41333 3.86 8.28C3.44667 8.14667 3.04333 7.98667 2.65 7.8C2.25667 7.61333 1.90667 7.36667 1.6 7.06C1.29333 6.75333 1.04333 6.37333 0.85 5.92C0.663333 5.46667 0.57 4.90333 0.57 4.23C0.57 3.69 0.676667 3.16667 0.89 2.66C1.10333 2.15333 1.41667 1.70333 1.83 1.31C2.24333 0.916667 2.75 0.6 3.35 0.36C3.95667 0.12 4.65 0 5.43 0C6.30333 0 7.11 0.136667 7.85 0.41C8.59667 0.676667 9.22667 1.05 9.74 1.53L9 2.94Z" fill="white"/>
<path d="M27.7756 7.41C27.7756 8.47 27.5956 9.45333 27.2356 10.36C26.8823 11.2667 26.379 12.05 25.7256 12.71C25.079 13.37 24.299 13.89 23.3856 14.27C22.4723 14.6433 21.459 14.83 20.3456 14.83C19.2323 14.83 18.219 14.6433 17.3056 14.27C16.3923 13.89 15.609 13.37 14.9556 12.71C14.3023 12.05 13.7956 11.2667 13.4356 10.36C13.0823 9.45333 12.9056 8.47 12.9056 7.41C12.9056 6.35 13.0823 5.37 13.4356 4.47C13.7956 3.56333 14.3023 2.78 14.9556 2.12C15.609 1.46 16.3923 0.943334 17.3056 0.57C18.219 0.19 19.2323 0 20.3456 0C21.459 0 22.4723 0.19 23.3856 0.57C24.299 0.943334 25.079 1.46333 25.7256 2.13C26.379 2.79 26.8823 3.57333 27.2356 4.48C27.5956 5.38 27.7756 6.35667 27.7756 7.41ZM24.7056 7.41C24.7056 6.65 24.6056 5.97 24.4056 5.37C24.2056 4.76333 23.9156 4.25 23.5356 3.83C23.1623 3.40333 22.7056 3.08 22.1656 2.86C21.6323 2.63333 21.0256 2.52 20.3456 2.52C19.6656 2.52 19.0556 2.63333 18.5156 2.86C17.9756 3.08 17.5156 3.40333 17.1356 3.83C16.7623 4.25 16.4756 4.76333 16.2756 5.37C16.0756 5.97 15.9756 6.65 15.9756 7.41C15.9756 8.17667 16.0756 8.86333 16.2756 9.47C16.4756 10.07 16.7623 10.58 17.1356 11C17.5156 11.42 17.9756 11.7433 18.5156 11.97C19.0556 12.19 19.6656 12.3 20.3456 12.3C21.0256 12.3 21.6323 12.19 22.1656 11.97C22.7056 11.7433 23.1623 11.42 23.5356 11C23.9156 10.58 24.2056 10.07 24.4056 9.47C24.6056 8.86333 24.7056 8.17667 24.7056 7.41Z" fill="white"/>
<path d="M40.1766 12.23V14.67H31.5666V0.16H34.5666V12.23H40.1766Z" fill="white"/>
<path d="M46.6358 14.67H43.6158V0.16H46.6358V14.67Z" fill="white"/>
<path d="M59.1305 2.94C59.0371 3.09333 58.9405 3.20667 58.8405 3.28C58.7471 3.34667 58.6238 3.38 58.4705 3.38C58.3238 3.38 58.1638 3.33 57.9905 3.23C57.8238 3.12333 57.6271 3.01 57.4005 2.89C57.1738 2.77 56.9138 2.66 56.6205 2.56C56.3271 2.45333 55.9838 2.4 55.5905 2.4C54.8971 2.4 54.3771 2.55667 54.0305 2.87C53.6838 3.17667 53.5105 3.58 53.5105 4.08C53.5105 4.4 53.6038 4.66667 53.7905 4.88C53.9838 5.08667 54.2338 5.26667 54.5405 5.42C54.8538 5.57333 55.2071 5.71 55.6005 5.83C55.9938 5.95 56.3971 6.08333 56.8105 6.23C57.2238 6.37 57.6271 6.53667 58.0205 6.73C58.4138 6.92333 58.7638 7.16667 59.0705 7.46C59.3838 7.75333 59.6338 8.11333 59.8205 8.54C60.0138 8.96 60.1105 9.47333 60.1105 10.08C60.1105 10.74 59.9938 11.36 59.7605 11.94C59.5338 12.5133 59.2038 13.0167 58.7705 13.45C58.3371 13.8767 57.8005 14.2133 57.1605 14.46C56.5271 14.7067 55.8071 14.83 55.0005 14.83C54.5405 14.83 54.0805 14.7833 53.6205 14.69C53.1671 14.5967 52.7271 14.4667 52.3005 14.3C51.8805 14.1333 51.4838 13.9333 51.1105 13.7C50.7371 13.4667 50.4105 13.2067 50.1305 12.92L51.0105 11.5C51.0838 11.3933 51.1805 11.3067 51.3005 11.24C51.4205 11.1667 51.5471 11.13 51.6805 11.13C51.8605 11.13 52.0505 11.1967 52.2505 11.33C52.4505 11.4633 52.6805 11.61 52.9405 11.77C53.2005 11.93 53.5005 12.0767 53.8405 12.21C54.1871 12.3433 54.6005 12.41 55.0805 12.41C55.7805 12.41 56.3205 12.25 56.7005 11.93C57.0871 11.61 57.2805 11.1333 57.2805 10.5C57.2805 10.1333 57.1838 9.83667 56.9905 9.61C56.8038 9.38333 56.5571 9.19333 56.2505 9.04C55.9438 8.88667 55.5938 8.75667 55.2005 8.65C54.8071 8.53667 54.4038 8.41333 53.9905 8.28C53.5771 8.14667 53.1738 7.98667 52.7805 7.8C52.3871 7.61333 52.0371 7.36667 51.7305 7.06C51.4238 6.75333 51.1738 6.37333 50.9805 5.92C50.7938 5.46667 50.7005 4.90333 50.7005 4.23C50.7005 3.69 50.8071 3.16667 51.0205 2.66C51.2338 2.15333 51.5471 1.70333 51.9605 1.31C52.3738 0.916667 52.8805 0.6 53.4805 0.36C54.0871 0.12 54.7805 0 55.5605 0C56.4338 0 57.2405 0.136667 57.9805 0.41C58.7271 0.676667 59.3571 1.05 59.8705 1.53L59.1305 2.94Z" fill="white"/>
</svg>
